<svg width="144" height="50" viewBox="0 0 144 50" fill="none" xmlns="http://www.w3.org/2000/svg">
<path fill-rule="evenodd" clip-rule="evenodd" d="M16.8043 27.7643C22.857 27.7643 27.7638 22.8575 27.7638 16.8047C27.7638 10.752 22.857 5.84521 16.8043 5.84521C10.7515 5.84521 5.84473 10.752 5.84473 16.8047C5.84473 22.8575 10.7515 27.7643 16.8043 27.7643ZM16.8044 24.111C20.8396 24.111 24.1108 20.8398 24.1108 16.8046C24.1108 12.7695 20.8396 9.49829 16.8044 9.49829C12.7692 9.49829 9.49805 12.7695 9.49805 16.8046C9.49805 20.8398 12.7692 24.111 16.8044 24.111Z" fill="#F19601"/>
<path fill-rule="evenodd" clip-rule="evenodd" d="M16.8474 33.6092C16.8332 33.6092 16.8189 33.6092 16.8046 33.6092C16.7903 33.6092 16.7761 33.6092 16.7618 33.6092H16.8474ZM26.0106 27.0598C26.0106 28.6942 27.7998 29.6173 28.9314 28.4381C31.8286 25.4188 33.6092 21.3196 33.6092 16.8046C33.6092 7.52368 26.0855 0 16.8046 0C7.52368 0 0 7.52368 0 16.8046C0 16.9584 0.00206653 17.1118 0.00617333 17.2646C0.0305626 18.1722 0.806022 18.8503 1.71393 18.8503H1.75751C2.83664 18.8503 3.65332 17.8836 3.65332 16.8045V16.8045C3.65332 9.54118 9.54142 3.65308 16.8048 3.65308C24.0681 3.65308 29.9562 9.54118 29.9562 16.8045C29.9562 20.1731 28.6897 23.2459 26.6069 25.5728C26.2387 25.9841 26.0106 26.5078 26.0106 27.0598V27.0598Z" fill="#832626"/>
<path fill-rule="evenodd" clip-rule="evenodd" d="M19.4717 29.1768C14.9321 29.1768 11.252 32.8569 11.252 37.3965C11.252 41.9361 14.9321 45.6162 19.4717 45.6162C24.0113 45.6162 27.6914 41.9361 27.6914 37.3965C27.6914 32.8569 24.0113 29.1768 19.4717 29.1768ZM19.4719 31.9166C16.4455 31.9166 13.9921 34.37 13.9921 37.3964C13.9921 40.4228 16.4455 42.8762 19.4719 42.8762C22.4983 42.8762 24.9517 40.4228 24.9517 37.3964C24.9517 34.37 22.4983 31.9166 19.4719 31.9166Z" fill="#F19601"/>
<path fill-rule="evenodd" clip-rule="evenodd" d="M27.6918 43.7791C28.8635 43.7791 29.5598 45.041 28.7686 45.9051C26.4643 48.4218 23.1517 50 19.4705 50C12.5098 50 6.86702 44.3572 6.86702 37.3965C6.86702 34.3669 7.93598 31.5869 9.71731 29.4132C10.5394 28.41 11.9818 29.095 11.9818 30.392V30.392C11.9818 30.7694 11.8427 31.1313 11.6142 31.4317C10.3547 33.0881 9.60706 35.1549 9.60706 37.3964C9.60706 42.8439 14.0232 47.26 19.4707 47.26C22.2321 47.26 24.7284 46.1253 26.5189 44.2967C26.8299 43.979 27.2473 43.7791 27.6918 43.7791V43.7791Z" fill="#832626"/>
<path d="M47.94 19.28C47.6467 19.28 47.4133 19.1933 47.24 19.02C47.08 18.8467 47 18.6133 47 18.32V6.04C47 5.73333 47.08 5.5 47.24 5.34C47.4 5.18 47.6267 5.1 47.92 5.1C48.2267 5.1 48.46 5.18 48.62 5.34C48.78 5.5 48.86 5.73333 48.86 6.04V17.68H55.22C55.5 17.68 55.7067 17.7467 55.84 17.88C55.9867 18.0133 56.06 18.2067 56.06 18.46C56.06 18.7267 55.9867 18.9333 55.84 19.08C55.7067 19.2133 55.5 19.28 55.22 19.28H47.94Z" fill="#383838"/>
<path d="M57.3664 19.42C57.1264 19.42 56.9331 19.3667 56.7864 19.26C56.6531 19.1533 56.5731 19.0067 56.5464 18.82C56.5197 18.6333 56.5597 18.4267 56.6664 18.2L62.1264 5.84C62.2464 5.56 62.3997 5.36 62.5864 5.24C62.7731 5.10667 62.9797 5.04 63.2064 5.04C63.4331 5.04 63.6331 5.10667 63.8064 5.24C63.9931 5.36 64.1531 5.56 64.2864 5.84L69.7464 18.2C69.8531 18.4267 69.8931 18.64 69.8664 18.84C69.8531 19.0267 69.7797 19.1733 69.6464 19.28C69.5131 19.3733 69.3264 19.42 69.0864 19.42C68.8197 19.42 68.6064 19.3533 68.4464 19.22C68.2864 19.0733 68.1464 18.8667 68.0264 18.6L66.6064 15.28L67.4664 15.76H58.9064L59.7664 15.28L58.3464 18.6C58.2264 18.8933 58.0931 19.1067 57.9464 19.24C57.7997 19.36 57.6064 19.42 57.3664 19.42ZM63.1664 7.28L60.0464 14.66L59.5664 14.24H66.8064L66.3464 14.66L63.2064 7.28H63.1664Z" fill="#383838"/>
<path d="M78.1805 19.46C76.7805 19.46 75.5805 19.1667 74.5805 18.58C73.5805 17.9933 72.8071 17.16 72.2605 16.08C71.7271 14.9867 71.4605 13.7 71.4605 12.22C71.4605 11.1133 71.6138 10.12 71.9205 9.24C72.2271 8.34667 72.6671 7.58667 73.2405 6.96C73.8138 6.32 74.5138 5.83333 75.3405 5.5C76.1805 5.16667 77.1271 5 78.1805 5C78.9805 5 79.7471 5.11333 80.4805 5.34C81.2271 5.56667 81.8671 5.88667 82.4005 6.3C82.6138 6.44667 82.7538 6.61333 82.8205 6.8C82.8871 6.98667 82.8938 7.16667 82.8405 7.34C82.8005 7.5 82.7138 7.64 82.5805 7.76C82.4605 7.86667 82.3071 7.92667 82.1205 7.94C81.9338 7.94 81.7338 7.86667 81.5205 7.72C81.0538 7.36 80.5405 7.1 79.9805 6.94C79.4338 6.76667 78.8471 6.68 78.2205 6.68C77.1938 6.68 76.3205 6.9 75.6005 7.34C74.8938 7.76667 74.3538 8.39333 73.9805 9.22C73.6205 10.0333 73.4405 11.0333 73.4405 12.22C73.4405 13.3933 73.6205 14.4 73.9805 15.24C74.3538 16.0667 74.8938 16.7 75.6005 17.14C76.3205 17.5667 77.1938 17.78 78.2205 17.78C78.8471 17.78 79.4405 17.6933 80.0005 17.52C80.5738 17.3467 81.1005 17.08 81.5805 16.72C81.7938 16.5733 81.9871 16.5067 82.1605 16.52C82.3471 16.5333 82.5005 16.5933 82.6205 16.7C82.7405 16.7933 82.8205 16.9267 82.8605 17.1C82.9138 17.26 82.9138 17.4267 82.8605 17.6C82.8071 17.7733 82.6871 17.9267 82.5005 18.06C81.9538 18.5267 81.3005 18.88 80.5405 19.12C79.7938 19.3467 79.0071 19.46 78.1805 19.46Z" fill="#383838"/>
<path d="M91.0669 19.46C89.7335 19.46 88.5802 19.1667 87.6069 18.58C86.6335 17.98 85.8735 17.14 85.3269 16.06C84.7935 14.9667 84.5269 13.6867 84.5269 12.22C84.5269 11.1133 84.6802 10.12 84.9869 9.24C85.2935 8.34667 85.7269 7.58667 86.2869 6.96C86.8602 6.32 87.5469 5.83333 88.3469 5.5C89.1602 5.16667 90.0669 5 91.0669 5C92.4002 5 93.5535 5.29333 94.5269 5.88C95.5002 6.46667 96.2535 7.3 96.7869 8.38C97.3202 9.46 97.5869 10.7333 97.5869 12.2C97.5869 13.3067 97.4335 14.3067 97.1269 15.2C96.8202 16.0933 96.3802 16.86 95.8069 17.5C95.2469 18.14 94.5669 18.6267 93.7669 18.96C92.9669 19.2933 92.0669 19.46 91.0669 19.46ZM91.0669 17.82C92.0269 17.82 92.8469 17.6 93.5269 17.16C94.2069 16.72 94.7269 16.08 95.0869 15.24C95.4602 14.4 95.6469 13.3933 95.6469 12.22C95.6469 10.4467 95.2469 9.07333 94.4469 8.1C93.6602 7.12667 92.5335 6.64 91.0669 6.64C90.1069 6.64 89.2802 6.86 88.5869 7.3C87.9069 7.72667 87.3869 8.36 87.0269 9.2C86.6669 10.0267 86.4869 11.0333 86.4869 12.22C86.4869 13.98 86.8869 15.3533 87.6869 16.34C88.4869 17.3267 89.6135 17.82 91.0669 17.82Z" fill="#383838"/>
<path d="M106.497 19.46C105.163 19.46 104.01 19.1667 103.037 18.58C102.063 17.98 101.303 17.14 100.757 16.06C100.223 14.9667 99.9566 13.6867 99.9566 12.22C99.9566 11.1133 100.11 10.12 100.417 9.24C100.723 8.34667 101.157 7.58667 101.717 6.96C102.29 6.32 102.977 5.83333 103.777 5.5C104.59 5.16667 105.497 5 106.497 5C107.83 5 108.983 5.29333 109.957 5.88C110.93 6.46667 111.683 7.3 112.217 8.38C112.75 9.46 113.017 10.7333 113.017 12.2C113.017 13.3067 112.863 14.3067 112.557 15.2C112.25 16.0933 111.81 16.86 111.237 17.5C110.677 18.14 109.997 18.6267 109.197 18.96C108.397 19.2933 107.497 19.46 106.497 19.46ZM106.497 17.82C107.457 17.82 108.277 17.6 108.957 17.16C109.637 16.72 110.157 16.08 110.517 15.24C110.89 14.4 111.077 13.3933 111.077 12.22C111.077 10.4467 110.677 9.07333 109.877 8.1C109.09 7.12667 107.963 6.64 106.497 6.64C105.537 6.64 104.71 6.86 104.017 7.3C103.337 7.72667 102.817 8.36 102.457 9.2C102.097 10.0267 101.917 11.0333 101.917 12.22C101.917 13.98 102.317 15.3533 103.117 16.34C103.917 17.3267 105.043 17.82 106.497 17.82Z" fill="#383838"/>
<path d="M116.766 19.42C116.5 19.42 116.286 19.34 116.126 19.18C115.98 19.02 115.906 18.8 115.906 18.52V5.98C115.906 5.67333 115.98 5.44 116.126 5.28C116.273 5.12 116.466 5.04 116.706 5.04C116.933 5.04 117.106 5.08 117.226 5.16C117.346 5.24 117.48 5.38 117.626 5.58L126.106 16.82H125.606V5.94C125.606 5.64667 125.68 5.42667 125.826 5.28C125.986 5.12 126.206 5.04 126.486 5.04C126.766 5.04 126.98 5.12 127.126 5.28C127.273 5.42667 127.346 5.64667 127.346 5.94V18.52C127.346 18.8 127.273 19.02 127.126 19.18C126.993 19.34 126.813 19.42 126.586 19.42C126.373 19.42 126.193 19.3733 126.046 19.28C125.913 19.2 125.773 19.06 125.626 18.86L117.166 7.62H117.626V18.52C117.626 18.8 117.553 19.02 117.406 19.18C117.26 19.34 117.046 19.42 116.766 19.42Z" fill="#383838"/>
<path d="M130.53 19.42C130.29 19.42 130.097 19.3667 129.95 19.26C129.817 19.1533 129.737 19.0067 129.71 18.82C129.684 18.6333 129.724 18.4267 129.83 18.2L135.29 5.84C135.41 5.56 135.564 5.36 135.75 5.24C135.937 5.10667 136.144 5.04 136.37 5.04C136.597 5.04 136.797 5.10667 136.97 5.24C137.157 5.36 137.317 5.56 137.45 5.84L142.91 18.2C143.017 18.4267 143.057 18.64 143.03 18.84C143.017 19.0267 142.944 19.1733 142.81 19.28C142.677 19.3733 142.49 19.42 142.25 19.42C141.984 19.42 141.77 19.3533 141.61 19.22C141.45 19.0733 141.31 18.8667 141.19 18.6L139.77 15.28L140.63 15.76H132.07L132.93 15.28L131.51 18.6C131.39 18.8933 131.257 19.1067 131.11 19.24C130.964 19.36 130.77 19.42 130.53 19.42ZM136.33 7.28L133.21 14.66L132.73 14.24H139.97L139.51 14.66L136.37 7.28H136.33Z" fill="#383838"/>
<path d="M47.94 46.28C47.6467 46.28 47.4133 46.1933 47.24 46.02C47.08 45.8467 47 45.6133 47 45.32V33.04C47 32.7333 47.08 32.5 47.24 32.34C47.4 32.18 47.6267 32.1 47.92 32.1C48.2267 32.1 48.46 32.18 48.62 32.34C48.78 32.5 48.86 32.7333 48.86 33.04V44.68H55.22C55.5 44.68 55.7067 44.7467 55.84 44.88C55.9867 45.0133 56.06 45.2067 56.06 45.46C56.06 45.7267 55.9867 45.9333 55.84 46.08C55.7067 46.2133 55.5 46.28 55.22 46.28H47.94Z" fill="#383838"/>
<path d="M58.957 46.28C58.637 46.28 58.3904 46.1933 58.217 46.02C58.0437 45.8467 57.957 45.6 57.957 45.28V33.18C57.957 32.86 58.0437 32.6133 58.217 32.44C58.3904 32.2667 58.637 32.18 58.957 32.18H66.317C66.5704 32.18 66.7637 32.2467 66.897 32.38C67.0437 32.5 67.117 32.68 67.117 32.92C67.117 33.1733 67.0437 33.3667 66.897 33.5C66.7637 33.6333 66.5704 33.7 66.317 33.7H59.757V38.36H65.897C66.1504 38.36 66.3437 38.4267 66.477 38.56C66.6104 38.6933 66.677 38.88 66.677 39.12C66.677 39.3733 66.6104 39.5667 66.477 39.7C66.3437 39.82 66.1504 39.88 65.897 39.88H59.757V44.76H66.317C66.5704 44.76 66.7637 44.8267 66.897 44.96C67.0437 45.08 67.117 45.2667 67.117 45.52C67.117 45.7733 67.0437 45.9667 66.897 46.1C66.7637 46.22 66.5704 46.28 66.317 46.28H58.957Z" fill="#383838"/>
<path d="M76.1172 46.46C74.6105 46.46 73.3305 46.1733 72.2772 45.6C71.2372 45.0133 70.4439 44.18 69.8972 43.1C69.3639 42.02 69.0972 40.7333 69.0972 39.24C69.0972 38.12 69.2505 37.12 69.5572 36.24C69.8639 35.3467 70.3105 34.5867 70.8972 33.96C71.4972 33.32 72.2172 32.8333 73.0572 32.5C73.9105 32.1667 74.8705 32 75.9372 32C76.7639 32 77.5639 32.1133 78.3372 32.34C79.1105 32.5533 79.8172 32.9067 80.4572 33.4C80.6172 33.52 80.7172 33.66 80.7572 33.82C80.8105 33.98 80.8172 34.14 80.7772 34.3C80.7372 34.46 80.6572 34.6 80.5372 34.72C80.4305 34.84 80.2905 34.9133 80.1172 34.94C79.9572 34.9533 79.7839 34.9 79.5972 34.78C79.0505 34.38 78.4772 34.0933 77.8772 33.92C77.2905 33.7467 76.6439 33.66 75.9372 33.66C74.8839 33.66 73.9905 33.88 73.2572 34.32C72.5239 34.7467 71.9705 35.38 71.5972 36.22C71.2372 37.0467 71.0572 38.0533 71.0572 39.24C71.0572 41.0667 71.4839 42.4533 72.3372 43.4C73.2039 44.3467 74.4839 44.82 76.1772 44.82C76.8039 44.82 77.4105 44.76 77.9972 44.64C78.5972 44.52 79.1705 44.3533 79.7172 44.14L79.3172 45.14V40.32H76.5972C76.3572 40.32 76.1639 40.2533 76.0172 40.12C75.8839 39.9867 75.8172 39.8067 75.8172 39.58C75.8172 39.3533 75.8839 39.18 76.0172 39.06C76.1639 38.94 76.3572 38.88 76.5972 38.88H80.1372C80.3772 38.88 80.5639 38.9467 80.6972 39.08C80.8439 39.2133 80.9172 39.4067 80.9172 39.66V44.8C80.9172 45.0133 80.8772 45.2 80.7972 45.36C80.7172 45.5067 80.5839 45.6133 80.3972 45.68C79.8372 45.9067 79.1705 46.0933 78.3972 46.24C77.6239 46.3867 76.8639 46.46 76.1172 46.46Z" fill="#383838"/>
<path d="M83.9875 46.42C83.7475 46.42 83.5542 46.3667 83.4075 46.26C83.2742 46.1533 83.1942 46.0067 83.1675 45.82C83.1408 45.6333 83.1808 45.4267 83.2875 45.2L88.7475 32.84C88.8675 32.56 89.0208 32.36 89.2075 32.24C89.3942 32.1067 89.6008 32.04 89.8275 32.04C90.0542 32.04 90.2542 32.1067 90.4275 32.24C90.6142 32.36 90.7742 32.56 90.9075 32.84L96.3675 45.2C96.4742 45.4267 96.5142 45.64 96.4875 45.84C96.4742 46.0267 96.4008 46.1733 96.2675 46.28C96.1342 46.3733 95.9475 46.42 95.7075 46.42C95.4408 46.42 95.2275 46.3533 95.0675 46.22C94.9075 46.0733 94.7675 45.8667 94.6475 45.6L93.2275 42.28L94.0875 42.76H85.5275L86.3875 42.28L84.9675 45.6C84.8475 45.8933 84.7142 46.1067 84.5675 46.24C84.4208 46.36 84.2275 46.42 83.9875 46.42ZM89.7875 34.28L86.6675 41.66L86.1875 41.24H93.4275L92.9675 41.66L89.8275 34.28H89.7875Z" fill="#383838"/>
<path d="M99.7955 46.28C99.5021 46.28 99.2688 46.1933 99.0955 46.02C98.9355 45.8467 98.8555 45.6133 98.8555 45.32V33.04C98.8555 32.7333 98.9355 32.5 99.0955 32.34C99.2555 32.18 99.4821 32.1 99.7755 32.1C100.082 32.1 100.315 32.18 100.475 32.34C100.635 32.5 100.715 32.7333 100.715 33.04V44.68H107.075C107.355 44.68 107.562 44.7467 107.695 44.88C107.842 45.0133 107.915 45.2067 107.915 45.46C107.915 45.7267 107.842 45.9333 107.695 46.08C107.562 46.2133 107.355 46.28 107.075 46.28H99.7955Z" fill="#383838"/>
</svg>
